<svg width="48" height="48" viewBox="0 0 48 48" fill="none" xmlns="http://www.w3.org/2000/svg">
<rect x="0.503174" y="0.439697" width="46.9966" height="46.9963" rx="23.4981" fill="#20B15A"/>
<path d="M23.9992 21.071C22.4206 21.071 21.1323 22.3592 21.1323 23.9378C21.1323 25.5164 22.4206 26.8047 23.9992 26.8047C25.5777 26.8047 26.866 25.5164 26.866 23.9378C26.866 22.3592 25.5777 21.071 23.9992 21.071ZM32.5975 23.9378C32.5975 22.7506 32.6083 21.5742 32.5416 20.3892C32.475 19.0128 32.161 17.7912 31.1544 16.7847C30.1458 15.776 28.9263 15.4642 27.5499 15.3975C26.3627 15.3308 25.1863 15.3416 24.0013 15.3416C22.8141 15.3416 21.6377 15.3308 20.4527 15.3975C19.0763 15.4642 17.8547 15.7782 16.8482 16.7847C15.8395 17.7933 15.5276 19.0128 15.461 20.3892C15.3943 21.5764 15.4051 22.7528 15.4051 23.9378C15.4051 25.1228 15.3943 26.3014 15.461 27.4864C15.5276 28.8629 15.8416 30.0844 16.8482 31.091C17.8568 32.0996 19.0763 32.4115 20.4527 32.4781C21.6399 32.5448 22.8163 32.5341 24.0013 32.5341C25.1885 32.5341 26.3649 32.5448 27.5499 32.4781C28.9263 32.4115 30.1479 32.0975 31.1544 31.091C32.1631 30.0823 32.475 28.8629 32.5416 27.4864C32.6105 26.3014 32.5975 25.125 32.5975 23.9378ZM23.9992 28.3488C21.5581 28.3488 19.5881 26.3788 19.5881 23.9378C19.5881 21.4968 21.5581 19.5268 23.9992 19.5268C26.4402 19.5268 28.4102 21.4968 28.4102 23.9378C28.4102 26.3788 26.4402 28.3488 23.9992 28.3488ZM28.5908 20.3763C28.0209 20.3763 27.5607 19.9161 27.5607 19.3461C27.5607 18.7762 28.0209 18.316 28.5908 18.316C29.1608 18.316 29.621 18.7762 29.621 19.3461C29.6212 19.4815 29.5947 19.6155 29.5429 19.7406C29.4912 19.8656 29.4154 19.9793 29.3197 20.075C29.224 20.1706 29.1103 20.2465 28.9853 20.2982C28.8602 20.3499 28.7262 20.3765 28.5908 20.3763Z" fill="white"/>
</svg>
