<svg width="47" height="48" viewBox="0 0 47 48" fill="none" xmlns="http://www.w3.org/2000/svg">
<circle cx="23.5637" cy="23.8337" r="23.394" fill="#20B15A"/>
<path fill-rule="evenodd" clip-rule="evenodd" d="M32.4808 30.8525H28.8871V25.23C28.8871 23.8884 28.8646 22.1642 27.0201 22.1642C25.1506 22.1642 24.865 23.6252 24.865 25.133V30.8525H21.2747V19.2889H24.7195V20.8702H24.7697C25.2484 19.9614 26.4212 19.0024 28.1696 19.0024C31.8083 19.0024 32.4799 21.3965 32.4799 24.5107L32.4808 30.8525ZM17.2231 17.7102C16.9493 17.7104 16.678 17.6566 16.4249 17.5519C16.1719 17.4472 15.9419 17.2936 15.7483 17.1C15.5546 16.9063 15.401 16.6764 15.2963 16.4233C15.1916 16.1702 15.1378 15.899 15.1381 15.6251C15.1381 15.213 15.2603 14.8101 15.4892 14.4674C15.7181 14.1246 16.0435 13.8575 16.4243 13.6997C16.805 13.5419 17.224 13.5005 17.6282 13.5808C18.0325 13.6611 18.4039 13.8594 18.6954 14.1507C18.987 14.442 19.1856 14.8133 19.2662 15.2174C19.3468 15.6216 19.3058 16.0406 19.1483 16.4215C18.9908 16.8024 18.724 17.128 18.3815 17.3572C18.0389 17.5864 17.6361 17.709 17.224 17.7093L17.2231 17.7102ZM19.0209 30.8525H15.4237V19.2889H19.0209V30.8525Z" fill="#F9F9F9"/>
</svg>
