<svg width="48" height="48" viewBox="0 0 48 48" fill="none" xmlns="http://www.w3.org/2000/svg">
<circle cx="24.2301" cy="23.8337" r="23.394" fill="#20B15A"/>
<path d="M35.5501 18.2518C34.8242 18.5735 34.0443 18.7908 33.2244 18.8891C34.0704 18.3829 34.7033 17.5862 35.005 16.6477C34.2102 17.1198 33.3403 17.4521 32.4332 17.6301C31.8232 16.9788 31.0153 16.5471 30.1348 16.402C29.2543 16.257 28.3505 16.4067 27.5638 16.8279C26.7771 17.2491 26.1514 17.9182 25.784 18.7314C25.4166 19.5446 25.3279 20.4564 25.5317 21.3252C23.9213 21.2443 22.3458 20.8257 20.9076 20.0966C19.4694 19.3675 18.2006 18.3441 17.1835 17.0928C16.8358 17.6927 16.6358 18.3883 16.6358 19.129C16.6354 19.7959 16.7996 20.4525 17.1139 21.0406C17.4281 21.6288 17.8827 22.1303 18.4372 22.5006C17.7941 22.4802 17.1652 22.3064 16.6027 21.9938V22.0459C16.6027 22.9812 16.9262 23.8877 17.5184 24.6116C18.1106 25.3355 18.935 25.8322 19.8518 26.0175C19.2552 26.1789 18.6297 26.2027 18.0225 26.087C18.2812 26.8918 18.785 27.5955 19.4635 28.0997C20.1419 28.6039 20.9611 28.8832 21.8063 28.8987C20.3716 30.025 18.5997 30.6359 16.7758 30.6332C16.4527 30.6333 16.1298 30.6145 15.809 30.5767C17.6604 31.7671 19.8156 32.3989 22.0167 32.3964C29.4676 32.3964 33.5409 26.2253 33.5409 20.8731C33.5409 20.6992 33.5365 20.5236 33.5287 20.3497C34.321 19.7767 35.0049 19.0672 35.5484 18.2544L35.5501 18.2518Z" fill="#F9F9F9"/>
</svg>
